<svg width="64" height="64" viewBox="0 0 64 64" fill="none" xmlns="http://www.w3.org/2000/svg">
<path d="M32 22.95C28.964 22.95 26.494 20.067 26.494 16.523C26.494 12.979 28.964 10.096 32 10.096C35.036 10.096 37.506 12.979 37.506 16.523C37.506 20.067 35.036 22.95 32 22.95ZM32 13.096C30.642 13.096 29.494 14.665 29.494 16.523C29.494 18.381 30.641 19.95 32 19.95C33.359 19.95 34.506 18.381 34.506 16.523C34.506 14.665 33.359 13.096 32 13.096Z" fill="#175C17"/>
<path d="M27.918 40.93C27.181 40.93 26.537 40.386 26.434 39.635C26.012 36.567 25.77 33.496 25.77 31.21C25.77 28.272 26.153 25.487 26.877 23.155C26.998 22.762 27.131 22.386 27.274 22.021C27.643 21.094 28.055 20.313 28.503 19.693C28.99 19.02 29.927 18.87 30.598 19.354C31.27 19.838 31.421 20.776 30.937 21.448C30.633 21.868 30.34 22.433 30.064 23.126C29.95 23.415 29.842 23.719 29.745 24.041C29.116 26.064 28.77 28.609 28.77 31.211C28.77 33.367 29.002 36.288 29.407 39.227C29.519 40.048 28.946 40.805 28.125 40.917C28.056 40.927 27.987 40.931 27.919 40.931L27.918 40.93Z" fill="#175C17"/>
<path d="M36.615 35.807C36.581 35.807 36.546 35.807 36.511 35.804C35.684 35.748 35.06 35.032 35.116 34.206C35.191 33.096 35.229 32.088 35.229 31.21C35.229 27.125 34.376 23.29 33.058 21.441C32.577 20.767 32.733 19.83 33.408 19.349C34.081 18.869 35.02 19.024 35.5 19.699C37.209 22.094 38.229 26.397 38.229 31.21C38.229 32.155 38.188 33.231 38.108 34.409C38.054 35.201 37.395 35.807 36.614 35.807H36.615Z" fill="#175C17"/>
<path d="M12.449 35.821C9.86601 35.821 7.18001 35.179 4.37701 33.898C3.94601 33.701 3.63401 33.313 3.53401 32.85C3.43301 32.387 3.55801 31.904 3.86901 31.548C9.13301 25.514 18.762 22.96 28.383 21.098C29.199 20.942 29.984 21.473 30.141 22.286C30.231 22.753 30.095 23.21 29.809 23.545C29.822 23.857 29.738 24.174 29.548 24.451C24.35 32.052 18.704 35.821 12.449 35.821ZM7.68001 31.982C14.365 34.2 20.155 31.857 25.654 24.714C18.639 26.223 11.966 28.273 7.68001 31.982Z" fill="#175C17"/>
<path d="M51.528 35.828C45.283 35.828 39.656 32.076 34.479 24.507C34.285 24.223 34.202 23.896 34.219 23.577C33.914 23.239 33.766 22.767 33.859 22.285C34.016 21.472 34.798 20.941 35.617 21.097C45.238 22.958 54.867 25.513 60.131 31.547C60.442 31.903 60.567 32.386 60.466 32.849C60.366 33.312 60.054 33.7 59.623 33.897C56.811 35.182 54.116 35.828 51.528 35.828ZM38.328 24.71C43.82 31.866 49.618 34.211 56.32 31.982C52.031 28.27 45.348 26.219 38.328 24.71Z" fill="#175C17"/>
<path d="M12.361 54.5C11.983 54.5 11.605 54.358 11.314 54.074C10.72 53.496 10.709 52.546 11.287 51.953L19.388 43.642V37.446C19.388 37.042 19.551 36.655 19.839 36.373L26.22 30.135C26.814 29.556 27.763 29.567 28.341 30.159C28.92 30.751 28.909 31.701 28.318 32.28L22.388 38.076V44.251C22.388 44.642 22.236 45.018 21.962 45.298L13.436 54.045C13.142 54.347 12.752 54.498 12.362 54.498L12.361 54.5Z" fill="#175C17"/>
<path d="M51.639 54.5C51.248 54.5 50.859 54.349 50.565 54.047L42.039 45.3C41.766 45.02 41.613 44.644 41.613 44.253V38.078L35.683 32.282C35.091 31.703 35.08 30.753 35.66 30.161C36.24 29.569 37.188 29.558 37.781 30.137L44.162 36.375C44.45 36.657 44.613 37.044 44.613 37.448V43.644L52.714 51.955C53.292 52.548 53.28 53.498 52.687 54.076C52.396 54.36 52.018 54.502 51.64 54.502L51.639 54.5Z" fill="#175C17"/>
<path d="M24.55 60.5C23.722 60.5 23.05 59.829 23.05 59V48.62C23.05 48.304 23.15 47.995 23.336 47.739L27.326 42.239C27.811 41.568 28.749 41.419 29.421 41.906C30.092 42.393 30.24 43.331 29.754 44.001L26.05 49.107V59C26.05 59.829 25.378 60.5 24.55 60.5Z" fill="#175C17"/>
<path d="M39.455 60.5C38.627 60.5 37.955 59.829 37.955 59V49.107L34.251 44.001C33.765 43.331 33.913 42.393 34.584 41.906C35.253 41.421 36.192 41.57 36.679 42.239L40.669 47.739C40.856 47.995 40.955 48.303 40.955 48.62V59C40.955 59.829 40.283 60.5 39.455 60.5Z" fill="#175C17"/>
<path d="M32 13.096C31.172 13.096 30.5 12.425 30.5 11.596V5C30.5 4.171 31.172 3.5 32 3.5C32.828 3.5 33.5 4.171 33.5 5V11.596C33.5 12.425 32.828 13.096 32 13.096Z" fill="#175C17"/>
<path d="M28.667 24.07C28.373 24.07 28.076 23.984 27.816 23.805L19.68 18.192C19.403 18.001 19.198 17.722 19.099 17.4L15.401 5.44199C15.156 4.64999 15.599 3.80999 16.39 3.56599C17.182 3.32199 18.023 3.76499 18.266 4.55599L21.811 16.017L29.519 21.334C30.202 21.805 30.373 22.739 29.902 23.42C29.611 23.842 29.143 24.068 28.667 24.068V24.07Z" fill="#175C17"/>
<path d="M35.333 24.07C34.856 24.07 34.389 23.844 34.098 23.422C33.627 22.74 33.798 21.806 34.481 21.336L42.189 16.019L45.734 4.558C45.977 3.767 46.819 3.325 47.61 3.568C48.401 3.813 48.844 4.653 48.599 5.444L44.901 17.402C44.802 17.723 44.597 18.002 44.32 18.194L36.184 23.807C35.924 23.986 35.627 24.072 35.333 24.072V24.07Z" fill="#175C17"/>
<path d="M32 52.59C30.979 52.59 28.27 52.59 26.435 39.641C26.374 39.211 26.502 38.775 26.788 38.447C27.074 38.119 27.486 37.93 27.921 37.93H36.081C36.516 37.93 36.929 38.118 37.214 38.447C37.499 38.776 37.627 39.211 37.567 39.641C35.732 52.59 33.022 52.59 32.002 52.59H32ZM29.667 40.93C30.446 45.647 31.388 48.323 32 49.296C32.612 48.323 33.554 45.648 34.333 40.93H29.667Z" fill="#175C17"/>
</svg>
